<svg width="459" height="58" viewBox="0 0 459 58" fill="none" xmlns="http://www.w3.org/2000/svg">
<circle cx="215.156" cy="14.5938" r="13.8438" transform="rotate(180 215.156 14.5938)" stroke="#EDF0F8"/>
<circle cx="186.469" cy="14.5938" r="13.8438" transform="rotate(180 186.469 14.5938)" stroke="#45C2B1"/>
<circle cx="157.781" cy="14.5938" r="13.8438" transform="rotate(180 157.781 14.5938)" stroke="#EDF0F8"/>
<circle cx="100.406" cy="14.5938" r="13.8438" transform="rotate(180 100.406 14.5938)" stroke="#EDF0F8"/>
<circle cx="43.0312" cy="14.5938" r="13.8438" transform="rotate(180 43.0312 14.5938)" stroke="#EDF0F8"/>
<circle cx="129.094" cy="14.5938" r="13.8438" transform="rotate(180 129.094 14.5938)" stroke="#C2D500"/>
<circle cx="71.7188" cy="14.5938" r="13.8438" transform="rotate(180 71.7188 14.5938)" stroke="#FFC629"/>
<circle cx="14.3437" cy="14.5938" r="13.8438" transform="rotate(180 14.3437 14.5938)" stroke="#E54360"/>
<circle cx="444.656" cy="14.5938" r="13.8438" transform="rotate(180 444.656 14.5938)" stroke="#EDF0F8"/>
<circle cx="415.969" cy="14.5938" r="13.8438" transform="rotate(180 415.969 14.5938)" stroke="#45C2B1"/>
<circle cx="387.281" cy="14.5938" r="13.8438" transform="rotate(180 387.281 14.5938)" stroke="#EDF0F8"/>
<circle cx="329.906" cy="14.5938" r="13.8438" transform="rotate(180 329.906 14.5938)" stroke="#EDF0F8"/>
<circle cx="272.531" cy="14.5938" r="13.8438" transform="rotate(180 272.531 14.5938)" stroke="#EDF0F8"/>
<circle cx="358.594" cy="14.5938" r="13.8438" transform="rotate(180 358.594 14.5938)" stroke="#C2D500"/>
<circle cx="301.219" cy="14.5938" r="13.8438" transform="rotate(180 301.219 14.5938)" stroke="#FFC629"/>
<circle cx="243.844" cy="14.5938" r="13.8438" transform="rotate(180 243.844 14.5938)" stroke="#E54360"/>
<circle cx="215.156" cy="43.2812" r="13.8438" transform="rotate(180 215.156 43.2812)" stroke="#FFC629"/>
<circle cx="186.469" cy="43.2812" r="13.8438" transform="rotate(180 186.469 43.2812)" stroke="#EDF0F8"/>
<circle cx="157.781" cy="43.2812" r="13.8438" transform="rotate(180 157.781 43.2812)" stroke="#EDF0F8"/>
<circle cx="100.406" cy="43.2812" r="13.8438" transform="rotate(180 100.406 43.2812)" stroke="#EDF0F8"/>
<circle cx="43.0312" cy="43.2812" r="13.8438" transform="rotate(180 43.0312 43.2812)" stroke="#C2D500"/>
<circle cx="129.094" cy="43.2812" r="13.8438" transform="rotate(180 129.094 43.2812)" stroke="#E54360"/>
<circle cx="71.7188" cy="43.2812" r="13.8438" transform="rotate(180 71.7188 43.2812)" stroke="#EDF0F8"/>
<circle cx="14.3437" cy="43.2812" r="13.8438" transform="rotate(180 14.3437 43.2812)" stroke="#EDF0F8"/>
<circle cx="444.656" cy="43.2812" r="13.8438" transform="rotate(180 444.656 43.2812)" stroke="#FFC629"/>
<circle cx="415.969" cy="43.2812" r="13.8438" transform="rotate(180 415.969 43.2812)" stroke="#EDF0F8"/>
<circle cx="387.281" cy="43.2812" r="13.8438" transform="rotate(180 387.281 43.2812)" stroke="#EDF0F8"/>
<circle cx="329.906" cy="43.2812" r="13.8438" transform="rotate(180 329.906 43.2812)" stroke="#EDF0F8"/>
<circle cx="272.531" cy="43.2812" r="13.8438" transform="rotate(180 272.531 43.2812)" stroke="#C2D500"/>
<circle cx="358.594" cy="43.2812" r="13.8438" transform="rotate(180 358.594 43.2812)" stroke="#E54360"/>
<circle cx="301.219" cy="43.2812" r="13.8438" transform="rotate(180 301.219 43.2812)" stroke="#EDF0F8"/>
<circle cx="243.844" cy="43.2812" r="13.8438" transform="rotate(180 243.844 43.2812)" stroke="#EDF0F8"/>
</svg>
