<svg width="249" height="70" viewBox="0 0 249 70" fill="none" xmlns="http://www.w3.org/2000/svg">
<g clip-path="url(#clip0_6077_3280)">
<path d="M1.10754 68.3731V17.8345H13.8359V68.3731H1.10754Z" fill="#1D1E1B"/>
<path d="M119.797 17.8345L105.223 52.2607L91.2447 17.8345H77.1704L98.4068 68.3731H111.51L132.833 17.8345H119.797Z" fill="#1D1E1B"/>
<path d="M201.839 68.3731V17.8345H214.568V68.3731H201.839Z" fill="#1D1E1B"/>
<path d="M7.47174 13.6142C10.9866 13.6142 13.8359 10.7649 13.8359 7.25004C13.8359 3.7352 10.9866 0.885849 7.47174 0.885849C3.95689 0.885849 1.10754 3.7352 1.10754 7.25004C1.10754 10.7649 3.95689 13.6142 7.47174 13.6142Z" fill="#C2D500"/>
<path d="M208.098 13.6142C211.613 13.6142 214.462 10.7649 214.462 7.25004C214.462 3.7352 211.613 0.885849 208.098 0.885849C204.583 0.885849 201.734 3.7352 201.734 7.25004C201.734 10.7649 204.583 13.6142 208.098 13.6142Z" fill="#E54360"/>
<path d="M189.601 29.3901C187.381 25.5062 184.371 22.4875 180.584 20.3245C176.796 18.1614 172.489 17.0847 167.663 17.0847C163.462 17.0847 159.77 18.0268 156.579 19.9015C155.069 20.7859 153.733 21.8915 152.541 23.2085V0.587772H139.812V68.3732H151.887V62.5666C153.166 64.1143 154.646 65.3737 156.348 66.3543C159.568 68.2001 163.347 69.123 167.673 69.123C172.499 69.123 176.796 68.0463 180.593 65.8832C184.381 63.7202 187.39 60.7015 189.611 56.8176C191.832 52.9337 192.947 48.3673 192.947 43.099C192.947 37.8308 191.832 33.2643 189.611 29.3805L189.601 29.3901ZM167.269 57.9232C164.779 57.9232 162.433 57.3079 160.366 56.2504C159.78 56.0293 159.203 55.7698 158.655 55.4621C156.713 54.3662 155.165 52.7511 154.002 50.6265C153.348 49.4344 152.906 48.1077 152.618 46.6753C152.281 45.4159 152.079 44.0989 152.079 42.7337C152.079 34.3411 158.876 27.5443 167.269 27.5443C175.662 27.5443 182.458 34.3411 182.458 42.7337C182.458 51.1264 175.662 57.9232 167.269 57.9232Z" fill="#1D1E1B"/>
<path d="M167.269 49.069C170.784 49.069 173.633 46.2197 173.633 42.7048C173.633 39.19 170.784 36.3406 167.269 36.3406C163.754 36.3406 160.905 39.19 160.905 42.7048C160.905 46.2197 163.754 49.069 167.269 49.069Z" fill="#FFC629"/>
<path d="M70.6425 26.8039C68.8255 23.5161 66.3356 21.0742 63.1727 19.4784C60.0099 17.8825 57.395 17.0846 54.3379 17.0846C50.0117 17.0846 46.1663 17.9979 42.7823 19.8052C40.7827 20.882 39.0715 22.2279 37.6198 23.8526V17.8345H25.5452V54.193C27.3141 52.7029 29.6021 51.8089 32.092 51.8089C34.4185 51.8089 36.5623 52.5972 38.2736 53.9142V43.3874C38.2736 40.1957 38.7927 37.6288 39.8213 35.6869C40.85 33.7449 42.292 32.2741 44.1475 31.2743C45.9933 30.2744 48.0794 29.7745 50.3963 29.7745C53.6553 29.7745 56.1741 30.7455 57.9622 32.6874C59.7503 34.6294 60.6444 37.6384 60.6444 41.705V68.3827H73.3728V39.4458C73.3728 34.3121 72.4595 30.1014 70.6521 26.8135L70.6425 26.8039Z" fill="#1D1E1B"/>
<path d="M32.0922 68.3732C35.6071 68.3732 38.4564 65.5238 38.4564 62.009C38.4564 58.4941 35.6071 55.6448 32.0922 55.6448C28.5774 55.6448 25.728 58.4941 25.728 62.009C25.728 65.5238 28.5774 68.3732 32.0922 68.3732Z" fill="#45C2B1"/>
<path d="M248.763 56.4526C247.417 57.1352 245.869 57.4813 244.11 57.4813C242.235 57.4813 240.745 56.8852 239.649 55.6931C238.553 54.501 238.005 52.8475 238.005 49.7519V29.2654H248.763V17.8252H238.005V0.88607H225.181V50.0307C225.181 57.0006 226.844 61.5286 230.161 64.5665C233.477 67.6044 236.188 69.1233 242.139 69.1233C244.389 69.1233 246.571 68.8541 248.667 68.3254C248.696 68.3254 248.734 68.3062 248.763 68.2965V56.4526Z" fill="#1D1E1B"/>
</g>
<defs>
<clipPath id="clip0_6077_3280">
<rect width="247.656" height="68.5352" fill="white" transform="translate(1.10742 0.587723)"/>
</clipPath>
</defs>
</svg>
